<mxfile host="app.diagrams.net" modified="2023-09-20T12:43:34.148Z" agent="Mozilla/5.0 (Windows NT 10.0; Win64; x64) AppleWebKit/537.36 (KHTML, like Gecko) Chrome/117.0.0.0 Safari/537.36 Edg/117.0.2045.31" version="21.7.5" etag="Nq82fBetcxbw1-wJllDa" type="github">
  <diagram name="Page-1" id="cIWZyLy3m_bMyak5TJjX">
    <mxGraphModel>
      <root>
        <mxCell id="0" />
        <mxCell id="1" parent="0" />
      </root>
    </mxGraphModel>
  </diagram>
</mxfile>
